<?xml version="1.0" encoding="UTF-8"?>
<svg xmlns="http://www.w3.org/2000/svg" xmlns:xlink="http://www.w3.org/1999/xlink" width="40pt" height="40pt" viewBox="0 0 40 40" version="1.1">
<g id="surface1">
<path style=" stroke:none;fill-rule:nonzero;fill:rgb(0%,0%,0%);fill-opacity:1;" d="M 17.339844 8.996094 C 16.261719 9.226562 15.601562 9.558594 14.761719 10.335938 C 13.679688 11.304688 13.359375 12.128906 13.421875 13.644531 C 13.480469 14.910156 13.480469 14.929688 12.71875 15.667969 C 12.101562 16.269531 12 16.496094 12.101562 16.867188 C 12.28125 17.5 12.519531 17.730469 15.339844 19.804688 L 17.761719 21.601562 L 16.140625 23.027344 L 14.5 24.4375 L 13.199219 24.101562 C 11.398438 23.644531 10.71875 23.660156 10.320312 24.207031 C 9.738281 24.980469 9.898438 25.230469 11.960938 26.566406 C 13.480469 27.570312 14.179688 28.167969 15.199219 29.402344 C 15.921875 30.265625 16.660156 31.019531 16.859375 31.089844 C 17.339844 31.230469 18.199219 30.527344 18.199219 30 C 18.199219 29.769531 18.039062 28.980469 17.859375 28.257812 L 17.539062 26.917969 L 19.121094 25.527344 L 20.699219 24.136719 L 22.5 26.089844 C 25.640625 29.523438 26.101562 29.769531 27.480469 28.695312 C 28.621094 27.800781 28.601562 27.570312 26.941406 23.574219 L 25.441406 19.980469 L 27.71875 17.941406 C 29.980469 15.914062 30 15.898438 30 15.070312 C 30 13.660156 28.859375 13.027344 27.28125 13.574219 C 26.960938 13.660156 25.761719 14.578125 24.601562 15.582031 C 22.878906 17.09375 22.421875 17.394531 22.039062 17.304688 C 21.480469 17.183594 21.480469 17.058594 22.121094 16.53125 C 22.421875 16.304688 22.859375 15.703125 23.121094 15.230469 C 24.898438 11.917969 21.359375 8.117188 17.339844 8.996094 Z M 20.160156 9.945312 C 22.820312 10.933594 23.539062 14.050781 21.519531 15.984375 C 20.800781 16.691406 20.460938 16.777344 19.539062 16.460938 L 18.699219 16.179688 L 18.761719 14.964844 L 18.839844 13.730469 L 20.21875 13.730469 C 21.460938 13.730469 21.601562 13.695312 21.601562 13.378906 C 21.601562 13.0625 21.460938 13.027344 20.199219 13.027344 L 18.800781 13.027344 L 18.800781 11.917969 C 18.800781 10.703125 18.679688 10.457031 18.261719 10.757812 C 18.101562 10.878906 18 11.339844 18 11.988281 L 18 13.027344 L 16.699219 13.027344 C 15.539062 13.027344 15.398438 13.0625 15.398438 13.378906 C 15.398438 13.695312 15.539062 13.730469 16.679688 13.730469 L 17.960938 13.730469 L 18.039062 14.859375 L 18.101562 15.984375 L 17.101562 15.632812 C 16.558594 15.421875 15.738281 15.175781 15.320312 15.054688 C 14.878906 14.945312 14.460938 14.699219 14.378906 14.507812 C 14.058594 13.785156 14.199219 12.570312 14.71875 11.65625 C 15.679688 9.964844 18.121094 9.207031 20.160156 9.945312 Z M 20.160156 9.945312 "/>
</g>
</svg>
